# xmcd
#
# Track frame offsets:
#	150
#	14885
#	26370
#	37224
#	49310
#	62261
#	75023
#	91353
#	102322
#	125382
#	138234
#	151292
#	167081
#	178581
#	197314
#	215388
#	227825
#	241234
#	253511
#	281901
#	293849
#	310681
#	324470
#
# Disc length: 4543
#
# Revision: 2
# Processed by: cddbd v1.5.1PL0 Copyright (c) Steve Scherf et al.
# Submitted via: EasyCDDAExtractor 6.0.0.1
# Normalized: r1:DSETVAR1,TSWAP
#
DISCID=3611bd17
DTITLE=Various Artist - Simply The Best Platinum Soul (disk 2)
DYEAR=1900
DGENRE=Blues
TTITLE0=Al Green - Let's Stay Together
TTITLE1=Drifters - Save The Last Dance For Me
TTITLE2=Aretha Franklin - Respect
TTITLE3=Chairmen of The Board - Give Me Just A Little More Time
TTITLE4=Ben E King - Spanish Harlem
TTITLE5=Ray Charles - I Got A Woman
TTITLE6=Brook Benton - Rainy Night In Georgia
TTITLE7=The Young Rascals - Groovin'
TTITLE8=The Chi Lites - Have You Seen Her?
TTITLE9=Booker T And The MG's - Green onions
TTITLE10=Carla Thomas - B-A-B-Y
TTITLE11=Soul Clan - Soul Meeting
TTITLE12=Sam and Dave - Hold On, I'm Coming
TTITLE13=Blue Magic - Sideshow
TTITLE14=Bloodstone - Natural High
TTITLE15=Betty Wright - Clean Up Woman
TTITLE16=Clarence Carter - Patches
TTITLE17=Albert King - Born Under A Bad Sign
TTITLE18=Donny Hathaway - The Ghetto
TTITLE19=Archie Bell and The Drells - Tighten Up
TTITLE20=Otis Redding - Try A Little Tenderness
TTITLE21=Eddie Floyd - Knock On Wood
TTITLE22=Cyrtis Mayfield - Move On Up
EXTD=
EXTT0=
EXTT1=
EXTT2=
EXTT3=
EXTT4=
EXTT5=
EXTT6=
EXTT7=
EXTT8=
EXTT9=
EXTT10=
EXTT11=
EXTT12=
EXTT13=
EXTT14=
EXTT15=
EXTT16=
EXTT17=
EXTT18=
EXTT19=
EXTT20=
EXTT21=
EXTT22=
PLAYORDER=
